<svg width="156" height="89" viewBox="0 0 156 89" fill="none" xmlns="http://www.w3.org/2000/svg">
<g clip-path="url(#clip0)">
<path d="M1.04208 27.9708C1.04208 27.9708 -7.67538 58.3079 25.2101 74.3284C32.9826 78.1147 50.1105 70.1636 64.049 70.9445C90.4141 72.4353 110.401 81.4276 123.394 76.1032C137.923 70.1636 143.286 64.3896 145.483 60.343C146.05 59.2782 146.853 58.1896 147.444 57.1721C151.224 50.9248 163.083 27.6395 149.736 12.3763C138.372 -0.63889 116.023 -0.591562 104.872 0.378659C100.88 0.733618 97.0054 1.82216 93.4144 3.62062C86.3979 7.12288 73.617 13.2992 68.2069 14.6717C58.0247 17.251 56.4655 16.8014 37.4949 8.6847C18.5243 0.56797 4.82204 0.946594 1.04208 27.9708Z" fill="#E9EDFB"/>
<path d="M137.475 50.4751C137.475 50.4751 123.3 22.954 106.999 22.4571C90.6983 21.9601 90.9345 40.6073 86.2804 43.4706C81.6264 46.334 76.6888 45.553 73.0743 39.3294C69.4597 33.1058 65.3254 21.5342 57.5529 22.0548C49.7804 22.5754 40.9448 46.8546 36.2907 46.8546C31.6367 46.8546 23.0609 28.3257 15.3829 28.6097C7.44504 28.8936 1.98775 50.5461 1.98775 50.5461L14.2489 50.4988L137.475 50.4751Z" fill="#E1E6FB"/>
<path d="M151.98 50.4515L104.92 51.0431C104.92 51.0431 100.999 50.8065 96.9823 47.7301C93.9348 45.3874 92.8717 43.7073 92.8717 42.0508C92.8717 40.3943 94.4073 31.8753 109.409 30.2188L155.335 29.3669C155.335 29.3669 155.737 30.7868 155.949 33.6028C156.02 34.9043 155.997 36.2295 155.855 37.531C155.69 39.0455 155.453 40.56 155.146 42.0508C154.272 46.0263 153.091 48.6294 151.98 50.4515Z" fill="#BAC5F4"/>
<path d="M110.259 38.9982C105.236 38.9982 101.164 37.8857 101.164 36.5135C101.164 35.1412 105.236 34.0287 110.259 34.0287C115.283 34.0287 119.355 35.1412 119.355 36.5135C119.355 37.8857 115.283 38.9982 110.259 38.9982Z" fill="white"/>
<path d="M146.405 42.7844C145.035 42.7844 143.925 41.6719 143.925 40.2997C143.925 38.9274 145.035 37.8149 146.405 37.8149C147.775 37.8149 148.886 38.9274 148.886 40.2997C148.886 41.6719 147.775 42.7844 146.405 42.7844Z" fill="white"/>
<path d="M139.2 43.021C137.764 43.021 136.601 41.8556 136.601 40.418C136.601 38.9804 137.764 37.8149 139.2 37.8149C140.635 37.8149 141.798 38.9804 141.798 40.418C141.798 41.8556 140.635 43.021 139.2 43.021Z" fill="white"/>
<path d="M139.2 43.021C137.764 43.021 136.601 41.8556 136.601 40.418C136.601 38.9804 137.764 37.8149 139.2 37.8149C140.635 37.8149 141.798 38.9804 141.798 40.418C141.798 41.8556 140.635 43.021 139.2 43.021Z" fill="white"/>
<path d="M131.64 43.021C130.205 43.021 129.041 41.8556 129.041 40.418C129.041 38.9804 130.205 37.8149 131.64 37.8149C133.075 37.8149 134.238 38.9804 134.238 40.418C134.238 41.8556 133.075 43.021 131.64 43.021Z" fill="white"/>
<path d="M72.5782 31.757C70.5036 31.757 68.8218 30.0724 68.8218 27.9944C68.8218 25.9164 70.5036 24.2319 72.5782 24.2319C74.6527 24.2319 76.3345 25.9164 76.3345 27.9944C76.3345 30.0724 74.6527 31.757 72.5782 31.757Z" fill="white"/>
<path d="M76.5943 31.2837C74.9373 31.2837 73.594 29.9382 73.594 28.2784C73.594 26.6186 74.9373 25.2731 76.5943 25.2731C78.2514 25.2731 79.5947 26.6186 79.5947 28.2784C79.5947 29.9382 78.2514 31.2837 76.5943 31.2837Z" fill="white"/>
<path d="M27.8567 23.8769C25.4559 23.8769 23.5098 21.9275 23.5098 19.5227C23.5098 17.118 25.4559 15.1686 27.8567 15.1686C30.2574 15.1686 32.2036 17.118 32.2036 19.5227C32.2036 21.9275 30.2574 23.8769 27.8567 23.8769Z" fill="white"/>
<path d="M23.2026 22.6227C21.7413 22.6227 20.5567 21.4361 20.5567 19.9723C20.5567 18.5086 21.7413 17.322 23.2026 17.322C24.664 17.322 25.8486 18.5086 25.8486 19.9723C25.8486 21.4361 24.664 22.6227 23.2026 22.6227Z" fill="white"/>
<path d="M32.369 23.0723C30.9077 23.0723 29.7231 21.8857 29.7231 20.422C29.7231 18.9582 30.9077 17.7716 32.369 17.7716C33.8303 17.7716 35.015 18.9582 35.015 20.422C35.015 21.8857 33.8303 23.0723 32.369 23.0723Z" fill="white"/>
<path d="M124.316 43.021C122.881 43.021 121.717 41.8556 121.717 40.418C121.717 38.9804 122.881 37.8149 124.316 37.8149C125.751 37.8149 126.915 38.9804 126.915 40.418C126.915 41.8556 125.751 43.021 124.316 43.021Z" fill="white"/>
<path d="M150.941 52.9598L2.36571 53.0782C2.36571 53.0782 7.46863 68.7437 11.0359 71.749C14.6033 74.7543 7.75214 89.213 34.0936 79.8894C60.4351 70.5658 74.9879 80.1733 82.6895 81.4039C90.3911 82.6344 110.661 92.5259 118.906 87.6985C127.151 82.871 123.3 77.1444 138.68 76.8604C154.06 76.5764 153.233 61.1949 153.233 61.1949L150.941 52.9598Z" fill="#F5F5FC"/>
<path d="M2.36571 53.0545L150.941 52.9598L152.075 50.4515L1.72784 50.4988L2.36571 53.0545Z" fill="white"/>
<path d="M129.821 50.7591H131.214L131.238 1.94044L129.821 1.63281V50.7591Z" fill="white"/>
<path d="M89.517 51.3034H90.9109V4.85107L89.5406 5.51366L89.517 51.3034Z" fill="white"/>
<path d="M50.0402 51.8713H51.4341V14.3167L50.0402 13.8434V51.8713Z" fill="white"/>
<path d="M12.5716 51.3034H13.9654V4.96942L12.5479 5.53736L12.5716 51.3034Z" fill="white"/>
<path d="M57.1508 65.4307H53.6779V62.7804H19.8475V65.5727H16.7999V58.4499L57.1508 58.5919V65.4307Z" fill="#BAC5F4"/>
<path d="M57.0563 57.3614L16.7763 57.2667V55.5392L57.1508 55.6339L57.0563 57.3614Z" fill="#BAC5F4"/>
<path d="M57.1513 54.8056L16.8713 54.7109V53.0071L57.2458 53.0781L57.1513 54.8056Z" fill="#BAC5F4"/>
<path d="M57.0563 52.1789L16.7763 52.0843V50.3568L57.1508 50.4515L57.0563 52.1789Z" fill="#BAC5F4"/>
<path d="M57.056 49.4576L16.776 49.3629V47.6591L57.1505 47.7301L57.056 49.4576Z" fill="#BAC5F4"/>
<path d="M135.372 76.4344H135.656L137.617 76.4581C137.617 76.4581 138.042 78.3749 138.231 79.1795C138.255 79.2268 138.278 79.3688 138.302 79.4634C138.349 79.6054 138.349 79.7474 138.349 79.8894C138.302 80.5993 138.018 81.2382 137.381 81.5695C136.672 81.9245 136.105 82.2795 135.372 81.5695C134.64 80.8596 134.522 80.4337 134.805 79.2268C135.089 77.9963 135.183 76.4581 135.372 76.4344Z" fill="#4B44BE"/>
<path d="M127.553 78.8482C128.828 78.4222 129.703 76.6948 129.703 76.6948L131.9 76.5528C131.9 76.5528 132.018 78.3276 132.065 79.2268C132.136 80.41 131.923 80.9779 131.167 80.907C130.128 80.8123 125.899 81.2146 125.238 80.765C124.363 80.2207 126.348 79.2268 127.553 78.8482Z" fill="#4B44BE"/>
<path d="M127.175 59.775C127.08 60.6743 127.742 65.3597 127.742 66.259C127.742 67.1582 129.703 76.6947 129.703 76.6947L131.947 76.6238C131.947 76.6238 131.427 62.5437 131.498 61.8575C131.545 61.1712 134.38 53.0071 134.38 53.0071C134.38 53.0071 134.593 55.1606 134.593 55.8468C134.593 56.5331 135.349 76.4344 135.349 76.4344H137.593L140.806 47.0438L141.113 44.5355L128.947 44.8431C128.947 44.8431 127.269 58.8758 127.175 59.775Z" fill="url(#paint0_linear)"/>
<path d="M125.663 38.8324L126.679 39.708L126.348 41.0805L125.923 41.6958C125.97 41.7431 126.064 41.3881 125.592 41.6484L124.694 41.6011L124.009 40.7019C124.009 40.7019 124.363 36.5844 125.97 33.721L125.663 38.8324ZM126.915 33.3897L127.009 32.8218L127.246 32.7745L126.915 33.3897ZM135.491 18.2212C134.924 17.9845 132.726 16.9433 132.396 17.1563C131.9 17.5822 131.545 18.1265 131.403 18.7418C131.309 19.1677 130.978 19.712 130.907 19.641C130.671 19.4044 130.718 20.3273 130.718 20.6112C130.789 21.0135 130.955 21.4158 131.238 21.6998C131.427 21.8417 131.616 22.3623 131.711 22.7646C131.805 23.1906 131.994 24.0662 131.829 24.4448C131.64 24.8707 129.325 29.0829 127.269 32.7981L138.845 30.7157L142.507 38.4538L140.853 39.779L141.326 41.3645L141.633 41.4118C141.633 41.4118 141.893 42.0271 142.176 41.7431C142.413 41.5065 142.743 41.6248 142.885 41.6958C142.932 41.7194 142.98 41.7194 143.027 41.7194L143.405 41.6484L143.641 39.566L140.074 28.586C140.074 28.586 135.798 24.7287 135.538 24.5868C135.302 24.4448 135.207 23.4036 135.443 22.9066C135.68 22.4097 135.963 21.9364 136.247 21.4631C136.436 21.1792 136.672 20.0906 136.672 19.6173C136.672 19.1441 136.388 19.3097 136.388 19.3097C136.388 19.3097 136.128 18.3868 135.561 18.1265C135.349 17.9845 132.396 17.1563 132.396 17.1563" fill="url(#paint1_linear)"/>
<path d="M140.05 26.2196C140.617 26.5982 141.137 27.1188 141.326 27.7814C141.515 28.444 144.728 34.6439 144.893 35.0936C145.035 35.5432 145.649 37.3416 145.318 39.2584C144.988 41.1988 143.523 41.6485 143.263 41.6485C143.121 41.6485 143.381 40.6546 143.428 39.9683C143.452 39.7317 143.239 39.1164 143.192 38.8798C143.098 38.5248 142.791 38.6195 142.791 38.2882C142.791 37.6729 141.279 35.5668 140.712 34.4073C140.145 33.2241 139.082 33.0348 138.893 32.5142C138.704 31.9936 140.475 43.0683 140.475 43.0683C140.475 43.0683 140.523 45.0087 140.145 45.1981C139.814 45.3637 135.727 46.9255 134.782 47.2805C134.687 47.3278 134.569 47.2568 134.522 47.1622L133.908 45.4347C133.908 45.411 133.884 45.3874 133.86 45.411C133.837 45.411 133.837 45.4347 133.837 45.4347L133.27 47.3041C133.246 47.3988 133.128 47.4461 133.034 47.4461L128.025 46.3576C128.025 46.3576 128.096 37.0813 128.002 35.5195C127.931 34.005 128.12 33.1531 127.836 33.5554C127.529 34.005 125.025 36.4897 125.025 37.1996C125.048 37.6019 124.859 37.9569 124.529 38.1935L124.67 41.6011C124.67 41.6011 123.253 40.0157 123.111 39.1401C122.97 38.2409 122.922 37.7676 123.348 36.892C123.773 35.9928 126.064 27.8997 126.064 27.8997C126.064 27.8997 126.301 26.9058 128.002 26.4089C129.703 25.8883 130.978 25.131 131.285 25.1547C131.593 25.1784 132.537 26.9532 132.963 27.4738C133.152 27.7104 133.104 27.8051 133.364 28.16C133.506 28.3257 133.742 28.373 133.908 28.231C133.955 28.1837 133.979 28.1837 134.002 28.1127C134.144 27.8997 134.238 27.6867 134.357 27.4974C134.546 27.1188 136.01 24.9654 136.01 24.9654C136.01 24.9654 139.483 25.841 140.05 26.2196Z" fill="url(#paint2_linear)"/>
<path d="M132.419 17.1563C132.419 17.1563 135.349 18.1502 135.892 18.6235C136.223 18.9311 136.412 19.3097 136.412 19.3097C136.412 19.3097 136.695 19.1914 136.695 19.6174C136.695 19.6174 136.814 19.3334 136.908 19.1677C137.003 19.0021 137.357 18.0792 137.026 17.3693C136.695 16.6594 136.27 16.2334 136.105 16.1151C135.939 15.9968 134.947 15.1449 133.979 15.1922C133.01 15.2395 132.396 15.9021 132.207 16.0441C132.018 16.1861 131.687 16.4701 131.451 16.5411C131.215 16.612 130.648 17.3693 130.624 17.9372C130.577 18.5052 130.789 19.7357 130.789 19.7357C130.789 19.7357 130.813 19.57 130.931 19.6647C131.049 19.7593 131.356 19.1441 131.451 18.7181C131.545 18.2685 132.419 17.1563 132.419 17.1563Z" fill="url(#paint3_linear)"/>
<path opacity="0.07" d="M136.223 46.5705C136.223 46.5705 137.57 53.7407 136.861 56.604C135.798 60.9582 137.333 66.8268 137.333 69.6428C137.333 71.465 136.625 76.5527 136.577 78.5878C136.554 79.2031 136.128 80.4099 136.436 80.6939C136.577 80.8122 137.428 80.5519 137.924 80.3153C138.16 80.197 138.325 79.9367 138.278 79.6764L137.995 78.4458L137.593 76.8367L140.381 50.6171C140.381 50.6171 141.279 44.7721 140.782 44.7484C140.263 44.7484 136.223 46.5705 136.223 46.5705Z" fill="black"/>
<path d="M138.68 33.3897L134.333 32.0409L134.12 44.3698L138.113 45.8843L138.68 33.3897Z" fill="white"/>
<path d="M134.333 32.0409L129.206 33.579V45.695L134.12 44.3698L134.333 32.0409Z" fill="white"/>
<path d="M129.206 33.5791L124.292 32.0646L124.978 38.4775L126.182 39.3767C126.324 39.4714 126.395 39.6134 126.419 39.7554L126.466 39.992C126.49 40.1103 126.466 40.2286 126.419 40.3233L126.206 40.8439C126.135 41.0095 126.017 41.1752 125.852 41.2698L125.143 41.6485L125.19 44.2515L129.23 45.7423V33.5791H129.206Z" fill="#E1E6FC"/>
<path d="M138.68 33.3898L143.452 31.8989L142.791 38.4065L141.609 39.3057C141.491 39.4004 141.397 39.5424 141.373 39.6844L141.326 39.921C141.302 40.0393 141.326 40.1576 141.373 40.2523L141.562 40.7729C141.633 40.9385 141.751 41.1042 141.916 41.1988L142.602 41.5775L142.554 44.3225L138.113 45.8843L138.68 33.3898Z" fill="#E1E6FC"/>
<path d="M134.427 32.0882L134.333 32.0409L134.238 32.0646L134.026 44.4171L134.12 44.3698L134.262 44.4171L134.427 32.0882Z" fill="#E1E6FC"/>
<path d="M103.952 80.7413C104.637 80.694 105.44 79.9131 105.44 79.9131L106.999 79.7001C106.999 79.7001 107.472 81.1672 106.952 81.4749C106.432 81.7825 103.314 81.8772 103.314 81.4749C103.29 81.0963 103.361 80.765 103.952 80.7413Z" fill="#4B44BE"/>
<path d="M114.559 80.694C115.173 80.3627 115.504 79.2741 115.504 79.2741L116.803 78.3986C116.803 78.3986 117.914 79.5108 117.559 80.0077C117.229 80.5047 114.488 82.0192 114.299 81.6642C114.134 81.2856 114.039 81.0016 114.559 80.694Z" fill="#4B44BE"/>
<path d="M112.22 38.8088C112.22 38.8088 110.732 35.6378 108.322 37.2943C105.912 38.9508 105.865 41.1042 106.598 42.1454C107.448 43.3759 107.235 44.3698 107.07 44.7721C107.023 44.8904 106.952 44.9851 106.834 45.0324L102.77 47.3278L101.14 48.866L97.2423 43.9439C97.2423 43.9439 96.6044 43.0446 95.4704 43.0446C94.3364 43.0446 93.8167 43.4233 93.8167 43.4233C93.8167 43.4233 93.6986 43.9202 95.0924 44.3225L96.4863 44.7011L100.03 51.043C100.03 51.043 101.093 51.4927 102.203 50.5461C103.196 49.7179 104.117 48.8423 104.968 47.8721L105.086 62.591L104.66 66.8032L104.849 69.2879C104.826 69.5246 104.944 71.9856 104.944 72.1986L105.227 76.0085L105.558 79.8657L106.976 79.6764L107.212 76.884L107.779 66.8505L107.85 57.7873L110.307 63.4666L110.212 66.7795L112.244 73.0741C112.338 73.3344 112.433 73.5947 112.551 73.8314L115.457 79.3214L116.827 78.4695L115.268 74.5176C115.102 74.1863 114.299 71.5596 114.181 71.181L113.142 66.2589L108.629 49.0316L110.897 50.1911C110.897 50.1911 112.551 53.9064 112.811 54.285C113.071 54.6636 116.095 58.4972 116.213 58.9941C116.331 59.4911 116.827 60.4849 117.465 60.7216C118.103 60.9819 119.237 61.3842 117.583 58.9941C116.284 57.101 115.457 55.7048 115.173 55.1842C115.102 55.0422 115.032 54.9003 114.961 54.7583L113.26 50.4514L110.543 46.0736L110.165 45.8133L109.385 45.1981C109.291 45.1271 109.244 44.9851 109.244 44.8668C109.338 44.2752 109.645 43.7546 110.094 43.3996C110.992 42.6897 112.811 41.3408 112.22 38.8088Z" fill="url(#paint4_linear)"/>
<path d="M111.677 58.0003L113.213 66.259L110.165 66.8979L108.275 60.0354L107.802 66.8742H104.637L104.33 56.2255L111.677 58.0003Z" fill="url(#paint5_linear)"/>
<path d="M113.331 50.5461C113.331 50.5461 112.362 47.0202 110.401 45.8606C110.189 45.7423 109.834 45.3874 109.811 45.6003C109.763 45.979 109.551 46.8782 108.677 46.8782C107.283 46.8782 106.881 45.7187 106.881 45.0797C106.881 44.8904 106.101 44.9378 105.416 45.0324C104.779 45.1271 104.117 45.411 103.692 45.8843L102.392 47.7064L103.597 49.0316L103.975 49.2446L104.353 56.2728C104.353 56.2728 107.165 57.5743 109.669 57.9292C110.33 58.0002 111.015 58.0476 111.701 58.0476L111.204 50.8064L113.331 50.5461Z" fill="url(#paint6_linear)"/>
<path d="M111.346 41.0332C110.897 40.4889 110.425 40.0157 109.905 39.5424C109.173 38.9271 108.795 38.5722 108.795 38.5722C108.795 38.5722 107.802 39.3058 107.377 39.4477C106.976 39.5897 106.361 39.85 106.361 39.85C106.361 39.85 106.031 38.7142 106.858 38.5722C107.684 38.4302 110.259 37.5073 110.779 37.9096C111.323 38.3119 112.22 39.4714 112.338 40.0393C112.457 40.6073 112.149 41.3172 111.937 41.4592C111.819 41.5302 112.149 40.8912 111.96 40.7729C111.866 40.6546 111.346 41.0332 111.346 41.0332Z" fill="url(#paint7_linear)"/>
<path d="M112.362 40.0393L104.424 38.1699C104.424 38.1699 104.282 37.7913 104.566 37.7913C104.849 37.7676 106.669 38.3829 106.669 38.3829C106.669 38.3829 107.448 36.0638 110.023 36.1348C110.023 36.1348 109.929 35.8982 110.07 35.8982C110.212 35.8745 110.874 36.0638 110.921 36.1111C110.968 36.1585 110.826 36.3241 110.897 36.3714C110.945 36.4424 113.165 37.5073 112.362 40.0393Z" fill="#4B44BE"/>
<path opacity="0.07" d="M106.81 42.4058C106.81 42.4058 107.33 43.0447 107.755 43.1867C108.18 43.3287 107.944 43.3287 107.755 43.8493C107.661 44.1332 107.543 44.3935 107.377 44.6302C107.377 44.6302 107.141 42.5951 106.81 42.4058Z" fill="black"/>
<path opacity="0.07" d="M110.874 36.3951C110.874 36.3951 110.519 36.7264 110.756 37.6493C110.992 38.5722 111.063 38.8325 110.874 39.1638C110.685 39.4951 110.826 39.708 110.826 39.708L112.386 40.0867C112.338 40.0393 113.331 37.7676 110.874 36.3951Z" fill="black"/>
<path opacity="0.07" d="M111.181 50.7828C111.181 50.7828 110.685 50.0728 110.637 49.4339C110.59 48.795 110.874 50.7118 110.543 51.8713C110.236 53.0308 110.59 54.0247 109.952 54.427C109.314 54.8293 109.811 56.2255 109.669 56.8171C109.574 57.172 109.338 57.456 108.984 57.598C108.984 57.598 109.078 57.9056 110.165 57.9766C111.275 58.0239 111.677 58.0239 111.677 58.0239L111.181 50.7828Z" fill="black"/>
<path d="M89.1627 46.9965C89.1627 46.9965 87.4617 53.8591 87.7216 54.6163C87.9815 55.3736 89.3753 55.5392 89.9895 55.6812C90.6038 55.8232 96.1792 57.456 96.7462 57.4796C97.3132 57.5033 97.2659 57.598 97.5258 57.598C97.7857 57.598 100.88 56.4384 100.975 56.0361C101.069 55.6339 101.164 55.3499 101.093 54.8529C100.999 54.3323 99.5811 47.8011 99.2031 47.6591C98.8488 47.5408 89.1627 46.9965 89.1627 46.9965Z" fill="url(#paint8_linear)"/>
<path d="M88.8792 48.2271C88.8792 48.2271 88.9973 47.1622 89.1627 46.9966C89.3281 46.8546 89.8006 46.1447 90.273 46.121C90.7455 46.0973 98.1637 47.1149 98.4472 47.1859C98.7307 47.2569 99.085 47.3989 99.2268 47.6592C99.3449 47.9195 98.1401 48.2271 97.9274 49.0317C97.7148 49.8363 93.4624 51.5637 92.3993 51.682C91.3362 51.824 88.8792 48.2271 88.8792 48.2271Z" fill="url(#paint9_linear)"/>
<path d="M91.3125 46.3813C91.3125 46.3813 92.1158 44.4645 92.4938 44.1096C92.8245 43.7783 94.053 43.092 94.7853 44.1332C95.6122 45.3164 95.5413 46.6653 95.5413 46.8309C95.5413 46.9966 94.7145 46.8546 94.7145 46.8546C94.7145 46.8546 94.9743 45.4584 94.7381 44.9851C94.5255 44.5355 94.4073 44.0149 93.6277 44.0623C92.8481 44.1096 92.5883 44.5829 92.352 45.0325C92.163 45.4821 91.9976 45.9317 91.8559 46.405C91.8323 46.4523 91.3125 46.3813 91.3125 46.3813Z" fill="#21C2C1"/>
<path d="M92.5883 46.4996C92.5883 46.4996 93.3915 44.1569 93.7695 43.7073C94.1002 43.305 95.3996 42.5241 96.132 43.8019C96.9588 45.2218 96.7934 46.8309 96.7934 47.0202C96.7934 47.2095 95.9666 47.0439 95.9666 47.0439C95.9666 47.0439 96.2028 45.3401 95.9902 44.7485C95.7776 44.2042 95.6595 43.5653 94.9035 43.6363C94.1475 43.7073 93.864 44.2752 93.6277 44.8195C93.4388 45.3637 93.2734 45.9317 93.1316 46.4996C93.1316 46.5943 92.5883 46.4996 92.5883 46.4996Z" fill="#21C2C1"/>
<path d="M97.5731 49.5286C97.5731 49.5286 96.8643 56.1071 96.9588 56.5567C97.0533 57.0064 97.2896 57.6216 97.4549 57.6216C97.6203 57.6216 97.9038 57.598 97.7857 57.4323C97.4313 56.8644 97.2896 56.1781 97.3605 55.5155C97.4786 54.4507 97.8802 49.0553 97.8802 49.0553L97.5731 49.5286Z" fill="#21C2C1"/>
<path d="M92.1866 52.179C91.9518 52.179 91.7614 51.9671 91.7614 51.7057C91.7614 51.4443 91.9518 51.2324 92.1866 51.2324C92.4215 51.2324 92.6119 51.4443 92.6119 51.7057C92.6119 51.9671 92.4215 52.179 92.1866 52.179Z" fill="white"/>
</g>
<defs>
<linearGradient id="paint0_linear" x1="141.118" y1="60.6101" x2="127.156" y2="60.6101" gradientUnits="userSpaceOnUse">
<stop stop-color="#93DF93"/>
<stop offset="1" stop-color="#21C2C1"/>
</linearGradient>
<linearGradient id="paint1_linear" x1="143.636" y1="29.474" x2="124.041" y2="29.474" gradientUnits="userSpaceOnUse">
<stop stop-color="#F87B58"/>
<stop offset="0.41" stop-color="#F89453"/>
<stop offset="0.71" stop-color="#F8C548"/>
<stop offset="1" stop-color="#F89C51"/>
</linearGradient>
<linearGradient id="paint2_linear" x1="145.404" y1="36.1964" x2="123.054" y2="36.1964" gradientUnits="userSpaceOnUse">
<stop stop-color="#93DF93"/>
<stop offset="1" stop-color="#21C2C1"/>
</linearGradient>
<linearGradient id="paint3_linear" x1="137.16" y1="17.4486" x2="130.613" y2="17.4486" gradientUnits="userSpaceOnUse">
<stop stop-color="#93DF93"/>
<stop offset="1" stop-color="#21C2C1"/>
</linearGradient>
<linearGradient id="paint4_linear" x1="118.453" y1="58.3308" x2="93.8209" y2="58.3308" gradientUnits="userSpaceOnUse">
<stop stop-color="#F87B58"/>
<stop offset="0.5" stop-color="#F8C548"/>
<stop offset="1" stop-color="#F89C51"/>
</linearGradient>
<linearGradient id="paint5_linear" x1="141.118" y1="60.6101" x2="127.156" y2="60.6101" gradientUnits="userSpaceOnUse">
<stop stop-color="#93DF93"/>
<stop offset="1" stop-color="#21C2C1"/>
</linearGradient>
<linearGradient id="paint6_linear" x1="145.404" y1="36.1964" x2="123.054" y2="36.1964" gradientUnits="userSpaceOnUse">
<stop stop-color="#93DF93"/>
<stop offset="1" stop-color="#21C2C1"/>
</linearGradient>
<linearGradient id="paint7_linear" x1="137.16" y1="17.4486" x2="130.613" y2="17.4486" gradientUnits="userSpaceOnUse">
<stop stop-color="#93DF93"/>
<stop offset="1" stop-color="#21C2C1"/>
</linearGradient>
<linearGradient id="paint8_linear" x1="85.2604" y1="47.0757" x2="98.7923" y2="52.7391" gradientUnits="userSpaceOnUse">
<stop stop-color="#93DF93"/>
<stop offset="1" stop-color="#21C2C1"/>
</linearGradient>
<linearGradient id="paint9_linear" x1="87.2858" y1="45.2974" x2="96.2796" y2="49.0621" gradientUnits="userSpaceOnUse">
<stop stop-color="#93DF93"/>
<stop offset="1" stop-color="#21C2C1"/>
</linearGradient>
<clipPath id="clip0">
<rect width="156" height="89" fill="white" transform="matrix(-1 0 0 1 156 0)"/>
</clipPath>
</defs>
</svg>
