<svg width="68" height="68" viewBox="0 0 68 68" fill="none" xmlns="http://www.w3.org/2000/svg">
<path d="M34.0033 5.10999C33.7813 5.10999 33.5572 5.18848 33.3957 5.34573C33.2427 5.50723 33.15 5.72903 33.15 5.95003C33.15 6.06053 33.1756 6.17176 33.2181 6.27376C33.2606 6.37576 33.3192 6.46932 33.3957 6.55432C33.5572 6.70732 33.779 6.80003 34 6.80003C34.0595 6.80003 34.1098 6.79193 34.1693 6.78343C34.2203 6.77493 34.2727 6.75746 34.3237 6.73196C34.3747 6.71496 34.4255 6.68959 34.4765 6.65559L34.6043 6.55432C34.6808 6.46932 34.7394 6.37576 34.7819 6.27376C34.8329 6.17176 34.85 6.06053 34.85 5.95003C34.85 5.72903 34.7573 5.50723 34.6043 5.34573C34.4471 5.18848 34.2254 5.10999 34.0033 5.10999H34.0033ZM32.0228 7.23C31.8071 7.25019 31.5988 7.35199 31.45 7.53049C31.144 7.89599 31.1957 8.43163 31.5612 8.72913C31.7142 8.86513 31.9086 8.92503 32.1041 8.92503C32.3421 8.92503 32.5882 8.82356 32.7582 8.61956C33.0557 8.26256 33.0058 7.71842 32.6403 7.42092C32.4618 7.27217 32.2384 7.20982 32.0228 7.23ZM35.9789 7.23166C35.7622 7.21148 35.5382 7.27622 35.3597 7.42922C34.9942 7.72672 34.9441 8.26256 35.2501 8.61956C35.4116 8.82356 35.6577 8.93332 35.9042 8.93332C36.0912 8.93332 36.2858 8.86493 36.4388 8.73743C36.8043 8.43143 36.8558 7.89579 36.5583 7.53879C36.4053 7.35604 36.1957 7.25185 35.9789 7.23166L35.9789 7.23166ZM30.2231 9.50442C30.0085 9.54267 29.8096 9.66419 29.6736 9.85969V9.85139C29.4101 10.2424 29.5036 10.7697 29.8861 11.0417C30.0306 11.1437 30.2009 11.1945 30.3709 11.1945C30.6429 11.1945 30.9067 11.0672 31.0682 10.8292C31.3402 10.4467 31.2465 9.91919 30.864 9.64719C30.6685 9.51119 30.4378 9.46617 30.2231 9.50442V9.50442ZM37.7769 9.51105C37.5633 9.47281 37.3356 9.51544 37.1443 9.64719C36.7533 9.91919 36.6598 10.4467 36.9318 10.8292C37.1018 11.0672 37.3656 11.1945 37.6291 11.1945C37.7991 11.1945 37.9694 11.1437 38.1139 11.0417C38.4964 10.7697 38.5899 10.2422 38.3264 9.85969C38.1904 9.66844 37.9904 9.5493 37.7769 9.51105ZM39.1548 11.905C39.0443 11.905 38.934 11.9256 38.8277 11.9681C38.7257 12.0106 38.632 12.0692 38.5555 12.1457C38.394 12.3072 38.3015 12.529 38.3015 12.75C38.3015 12.8966 38.3545 13.0359 38.4293 13.1651L38.4177 13.1717C39.1093 14.3845 39.6614 15.5761 40.0845 16.7294C36.8866 18.456 34.6795 20.829 33.995 23.6888C33.9809 23.7476 33.9718 23.8201 33.9585 23.8814C33.9456 23.8245 33.9372 23.7568 33.9236 23.7021C33.225 20.8759 31.0469 18.5143 27.9023 16.7676C28.3271 15.6024 28.885 14.3979 29.584 13.1717L29.5707 13.1651C29.6455 13.0359 29.6985 12.8966 29.6985 12.75C29.6985 12.529 29.606 12.3072 29.4445 12.1457C29.13 11.8312 28.5604 11.8312 28.2459 12.1457C28.1911 12.2006 28.1583 12.2704 28.1214 12.3366L28.1065 12.3283C27.404 13.5605 26.8251 14.7898 26.3683 15.9989C25.19 15.4669 23.9117 15.0072 22.5433 14.6326L22.5366 14.6542C22.2503 14.5825 21.9289 14.6394 21.7182 14.8501C21.5567 15.0116 21.4708 15.2318 21.4708 15.4528C21.4708 15.6738 21.5567 15.8956 21.7182 16.0571C21.8248 16.158 21.9571 16.2186 22.0983 16.2579L22.0934 16.2729C23.4554 16.6456 24.7023 17.1036 25.8271 17.6276C24.8386 21.0866 24.9684 24.297 26.4729 26.79C26.5109 26.8529 26.5643 26.9228 26.6057 26.9875C26.567 26.963 26.5242 26.9295 26.4861 26.9062C24.6444 25.7773 22.405 25.4173 19.9634 25.7241C19.0769 25.8356 18.163 26.038 17.2324 26.3201C16.6957 25.1784 16.2296 23.9071 15.8495 22.5184L15.8429 22.52C15.8335 22.4843 15.8263 22.4471 15.8097 22.4138C15.7927 22.3628 15.7673 22.3204 15.7333 22.2694C15.7078 22.2269 15.666 22.1857 15.632 22.1432C15.394 21.9052 15.0202 21.8281 14.7057 21.9556C14.5952 21.9981 14.5101 22.0667 14.4251 22.1432C14.2721 22.2962 14.1777 22.5163 14.1777 22.7458C14.1777 22.8201 14.2027 22.8916 14.2226 22.9633L14.2093 22.9666C14.5942 24.3729 15.0694 25.6847 15.6204 26.8896C14.5002 27.3333 13.364 27.8806 12.2254 28.5398L12.2271 28.5431C12.2119 28.5523 12.1943 28.557 12.1806 28.568C12.1296 28.602 12.0867 28.6369 12.0527 28.6709C11.9762 28.7559 11.9093 28.841 11.8668 28.9515C11.8243 29.0535 11.807 29.1631 11.807 29.2736C11.807 29.3841 11.8243 29.4953 11.8668 29.5973C11.9093 29.6993 11.9762 29.7846 12.0527 29.8696C12.2142 30.0311 12.4277 30.1153 12.6487 30.1153C12.8033 30.1153 12.9392 30.0636 13.0654 29.9891L13.0721 30.0007C14.2025 29.3463 15.3125 28.8192 16.3907 28.4053C18.1327 31.5063 20.4762 33.6544 23.2787 34.347C23.298 34.3518 23.3222 34.3556 23.3418 34.3603C20.5021 35.0553 18.1492 37.2652 16.4356 40.463C15.3433 40.0468 14.2182 39.5126 13.0721 38.8493L13.0638 38.8643C13.0312 38.8457 13.0058 38.8174 12.9708 38.8029C12.8178 38.7349 12.6475 38.7174 12.486 38.7514C12.4265 38.7599 12.376 38.7774 12.325 38.8029C12.274 38.8199 12.2231 38.8452 12.1806 38.8792C12.1296 38.9132 12.0868 38.9465 12.0528 38.9805C11.9763 39.0655 11.9093 39.1508 11.8668 39.2528C11.8243 39.3633 11.807 39.4658 11.807 39.5848C11.807 39.6953 11.8243 39.7966 11.8668 39.8986C11.9093 40.0006 11.9763 40.0941 12.0528 40.1791C12.1059 40.2294 12.1711 40.2624 12.2337 40.2987L12.2271 40.3103C13.3922 40.9846 14.5546 41.5435 15.7001 41.992C15.2111 43.1179 14.7867 44.3331 14.4417 45.6311L14.4583 45.6361C14.4401 45.7066 14.4168 45.7756 14.4168 45.8486C14.4168 45.8996 14.4164 45.9602 14.4334 46.0112C14.4419 46.0707 14.4579 46.1213 14.4749 46.1723C14.5004 46.2233 14.5258 46.2742 14.5513 46.3167C14.5853 46.3677 14.62 46.4105 14.6625 46.4445C14.8155 46.606 15.0358 46.6903 15.2568 46.6903C15.3078 46.6903 15.3685 46.6907 15.4195 46.6737C15.479 46.6651 15.5296 46.6475 15.5806 46.6305C15.6316 46.605 15.6825 46.5796 15.725 46.5541C15.776 46.5201 15.8188 46.487 15.8528 46.4445C15.8953 46.4105 15.9284 46.3677 15.9624 46.3167C15.9879 46.2742 16.0133 46.2233 16.0388 46.1723C16.0504 46.1375 16.0598 46.1001 16.0687 46.0627L16.0736 46.0644C16.4132 44.7869 16.8288 43.6141 17.3038 42.5482C20.7704 43.5841 23.9924 43.4717 26.4861 41.9439C26.5242 41.9206 26.567 41.8871 26.6057 41.8625C26.5643 41.9273 26.5109 41.9971 26.4729 42.0601C24.9824 44.5299 24.842 47.704 25.8005 51.1262C24.7465 51.5969 23.5894 52.0106 22.3291 52.3481L22.3324 52.3614C22.2976 52.3705 22.2613 52.3723 22.2278 52.3863C22.1173 52.4288 22.0323 52.4874 21.9473 52.5639C21.7943 52.7254 21.6999 52.9472 21.6999 53.1682C21.6999 53.2192 21.7097 53.2782 21.7182 53.3292C21.7267 53.3802 21.7425 53.4393 21.768 53.4903C21.785 53.5413 21.8103 53.5837 21.8443 53.6347L21.9473 53.7625C22.1088 53.9155 22.3289 54.0082 22.5499 54.0082C22.6232 54.0082 22.6925 53.9844 22.7624 53.9651L22.7657 53.98C24.0345 53.6402 25.2227 53.2239 26.3268 52.7448C26.7892 53.9881 27.3835 55.2535 28.1064 56.5217L28.1214 56.5134C28.1583 56.5796 28.1911 56.6495 28.2459 56.7043C28.3989 56.8573 28.619 56.95 28.8485 56.95C29.0695 56.95 29.2915 56.8573 29.4445 56.7043C29.606 56.5428 29.6985 56.321 29.6985 56.1C29.6985 55.9895 29.673 55.8783 29.6305 55.7763C29.6169 55.7436 29.5881 55.7175 29.5707 55.6866L29.584 55.6783C28.8694 54.4249 28.3004 53.1936 27.8724 52.0044C31.0943 50.2763 33.3174 47.8948 34.005 45.0218C34.0139 44.9847 34.0197 44.9386 34.0282 44.9006C34.0457 44.9802 34.0577 45.0724 34.0764 45.148C34.775 47.9741 36.9531 50.3357 40.0978 52.0824C39.6729 53.2476 39.115 54.4521 38.416 55.6783L38.4293 55.6866C38.411 55.7175 38.3831 55.7436 38.3695 55.7763C38.327 55.8783 38.3015 55.9895 38.3015 56.1C38.3015 56.2105 38.327 56.3218 38.3695 56.4237C38.412 56.5257 38.479 56.6193 38.5555 56.7043C38.632 56.7808 38.7257 56.8395 38.8277 56.882C38.9297 56.9244 39.041 56.95 39.1515 56.95C39.2705 56.95 39.3713 56.9244 39.4818 56.882C39.5838 56.8395 39.6776 56.7808 39.7541 56.7043C39.8057 56.647 39.8417 56.5801 39.8803 56.5151L39.8936 56.5217C40.596 55.2896 41.1749 54.0602 41.6317 52.8511C42.81 53.3831 44.0883 53.8429 45.4567 54.2174L45.4601 54.2025C45.5322 54.2226 45.6044 54.2473 45.6792 54.2473C45.9087 54.2473 46.1203 54.1529 46.2818 53.9999C46.3583 53.9149 46.4269 53.8214 46.4694 53.7194C46.5119 53.6174 46.5292 53.5078 46.5292 53.3973C46.5292 53.1763 46.4433 52.9545 46.2818 52.793C46.1778 52.6889 46.0431 52.6323 45.9017 52.5971L45.9067 52.5772C44.5446 52.2044 43.2977 51.7464 42.173 51.2225C43.1614 47.7635 43.0316 44.5531 41.5272 42.0601C41.4891 41.9971 41.4357 41.9273 41.3943 41.8625C41.433 41.8871 41.4758 41.9206 41.5139 41.9439C44.0244 43.4826 47.2738 43.5887 50.7676 42.5299C51.3044 43.6716 51.7704 44.943 52.1505 46.3317L52.1671 46.3267C52.2065 46.4679 52.267 46.6003 52.368 46.7069C52.5295 46.8684 52.7513 46.9542 52.9723 46.9542C53.0828 46.9542 53.1923 46.937 53.2943 46.8945C53.4048 46.852 53.4899 46.7834 53.5749 46.7069C53.7279 46.5454 53.8223 46.3252 53.8223 46.1042C53.8223 46.03 53.7979 45.9583 53.7774 45.8867L53.7907 45.8834C53.4058 44.4772 52.9306 43.1653 52.3796 41.9605C53.4999 41.5169 54.636 40.9694 55.7746 40.3103L55.768 40.297C55.8299 40.261 55.8947 40.2289 55.9473 40.1791C56.1088 40.0176 56.193 39.806 56.193 39.5765C56.193 39.466 56.1757 39.3633 56.1332 39.2528C56.0907 39.1508 56.0238 39.057 55.9473 38.9805C55.7093 38.751 55.3437 38.6754 55.0292 38.8028C54.9942 38.8174 54.9689 38.8457 54.9362 38.8643L54.9279 38.8493C53.7975 39.5037 52.6875 40.0308 51.6093 40.4447C49.8673 37.3437 47.5238 35.1956 44.7213 34.503C44.5925 34.4712 44.4398 34.4481 44.2996 34.42C44.4082 34.398 44.5302 34.3814 44.6316 34.357C47.4483 33.6778 49.7861 31.5063 51.4997 28.3621C52.612 28.7816 53.7593 29.3244 54.9279 30.0007L54.9362 29.9858C54.9689 30.0043 54.9942 30.0326 55.0292 30.0472C55.1312 30.0897 55.2408 30.1153 55.3513 30.1153C55.5723 30.1153 55.7858 30.0311 55.9473 29.8696C56.0238 29.7846 56.0907 29.6993 56.1332 29.5973C56.1757 29.4868 56.193 29.3841 56.193 29.2736C56.193 29.0441 56.1088 28.8324 55.9473 28.6709C55.8961 28.6197 55.8352 28.5785 55.7713 28.5431L55.7729 28.5398C54.5899 27.8551 53.409 27.2897 52.2468 26.8381C52.7586 25.6789 53.2009 24.4225 53.5583 23.0779L53.5434 23.0745C53.561 23.0051 53.5832 22.9371 53.5832 22.8654C53.5832 22.6359 53.499 22.4226 53.3375 22.2611C53.3035 22.2271 53.2607 22.1938 53.2097 22.1598C53.1672 22.1258 53.1162 22.1004 53.0652 22.0834C53.0142 22.0579 52.9637 22.0405 52.9042 22.032C52.6322 21.981 52.3427 22.0656 52.1472 22.2611C52.039 22.3692 51.9799 22.5058 51.943 22.6495L51.9264 22.6446C51.5737 23.9714 51.1397 25.1869 50.6414 26.2853C49.755 26.0234 48.8827 25.8321 48.0366 25.7258C45.5951 25.4189 43.3557 25.7778 41.5139 26.9062C41.4758 26.9295 41.433 26.963 41.3943 26.9875C41.4357 26.9228 41.4891 26.853 41.5272 26.79C43.0363 24.2901 43.1621 21.0692 42.1646 17.5993C43.2278 17.1221 44.3969 16.7037 45.6709 16.3625L45.6659 16.3459C45.8088 16.3088 45.9451 16.2494 46.0527 16.1417C46.1292 16.0652 46.1895 15.9714 46.232 15.8694C46.2745 15.7674 46.3001 15.6562 46.3001 15.5457C46.3001 15.4352 46.2745 15.3256 46.232 15.2236C46.1895 15.1216 46.1292 15.0279 46.0527 14.9514C45.8415 14.7401 45.5248 14.6643 45.2359 14.7372L45.2343 14.7289C43.9477 15.0735 42.7437 15.4962 41.6268 15.984C41.1707 14.7796 40.5933 13.5555 39.8936 12.3283L39.8786 12.3366C39.8418 12.2704 39.8089 12.2005 39.7541 12.1457C39.6776 12.0692 39.5838 12.0106 39.4818 11.9681C39.3756 11.9256 39.2653 11.905 39.1548 11.905L39.1548 11.905ZM13.942 13.4489C13.6934 13.4274 13.4401 13.5126 13.268 13.6847C13.1065 13.8462 13.014 14.068 13.014 14.289C13.014 14.5185 13.1065 14.7301 13.268 14.8916C13.421 15.0531 13.643 15.139 13.864 15.139C13.9745 15.139 14.084 15.1217 14.186 15.0792C14.2965 15.0367 14.3901 14.9681 14.4666 14.8916C14.6281 14.7301 14.714 14.5185 14.714 14.289C14.714 14.068 14.6281 13.8462 14.4666 13.6847C14.3901 13.6082 14.2965 13.5496 14.186 13.5071C14.1074 13.4752 14.0249 13.4561 13.942 13.4489H13.942ZM53.8339 13.605C53.7245 13.605 53.6131 13.6256 53.5068 13.6681C53.4048 13.7106 53.3127 13.7792 53.2362 13.8557C53.0832 14.0087 52.9889 14.229 52.9889 14.45C52.9889 14.671 53.0832 14.8914 53.2362 15.0444C53.3127 15.1294 53.4048 15.1895 53.5068 15.232C53.6173 15.2745 53.7201 15.3 53.8306 15.3C54.0516 15.3 54.2717 15.2059 54.4332 15.0444C54.5862 14.8914 54.6806 14.671 54.6806 14.45C54.6806 14.399 54.6725 14.34 54.664 14.289C54.6555 14.2295 54.638 14.1773 54.6125 14.1263C54.5955 14.0753 54.5701 14.0244 54.5361 13.9819C54.5106 13.9309 54.4672 13.8897 54.4332 13.8557C54.3567 13.7792 54.2648 13.7106 54.1543 13.6681C54.0523 13.6256 53.9433 13.605 53.8339 13.605V13.605ZM16.7958 13.6083C16.3283 13.5658 15.9119 13.9062 15.8694 14.3737C15.8269 14.8412 16.1673 15.2575 16.6348 15.3H16.7194C17.1444 15.3 17.5186 14.9682 17.5611 14.5347C17.6036 14.0672 17.2633 13.6508 16.7958 13.6083ZM50.9402 13.7445C50.4727 13.787 50.1326 14.195 50.1666 14.6625C50.2091 15.1045 50.5748 15.4362 51.0083 15.4362C51.0338 15.4362 51.0592 15.4364 51.0847 15.4279C51.5522 15.3939 51.8923 14.9856 51.8583 14.5181C51.8158 14.0506 51.4077 13.7105 50.9402 13.7445V13.7445ZM19.6861 13.9918C19.2271 13.9153 18.785 14.2199 18.7 14.6874C18.6235 15.1464 18.93 15.5888 19.389 15.6653C19.44 15.6738 19.4907 15.6819 19.5417 15.6819C19.9412 15.6819 20.3071 15.3928 20.3751 14.9763C20.4601 14.5173 20.1536 14.0768 19.6861 13.9918V13.9918ZM48.0682 14.1097C47.6092 14.1947 47.3027 14.6285 47.3792 15.0875C47.4472 15.4955 47.8046 15.7931 48.2126 15.7931C48.2636 15.7931 48.306 15.785 48.357 15.7765C48.816 15.7 49.1208 15.266 49.0443 14.807C48.9678 14.348 48.5357 14.0332 48.0682 14.1097V14.1097ZM13.9486 16.2945C13.4811 16.337 13.1323 16.745 13.1833 17.2125C13.2258 17.6545 13.5915 17.9862 14.025 17.9862H14.1097C14.5772 17.9352 14.9175 17.5273 14.875 17.0598C14.8325 16.5923 14.4161 16.2435 13.9486 16.2945V16.2945ZM53.7708 16.4472C53.3033 16.4047 52.8952 16.745 52.8527 17.2125C52.8102 17.68 53.1591 18.0883 53.6181 18.1223C53.6436 18.1308 53.6689 18.1306 53.6944 18.1306C54.1279 18.1306 54.5021 17.799 54.5361 17.357C54.5786 16.8895 54.2298 16.4812 53.7708 16.4472H53.7708ZM40.6074 18.3879C41.3948 21.3779 41.2175 24.014 40.0729 25.9101C39.4039 27.0184 37.9449 28.5851 36.0852 29.3267C35.2737 27.4799 35.3369 25.3365 35.6369 24.0822C36.1554 21.916 37.9061 19.926 40.6074 18.3879ZM27.3793 18.441C30.024 19.9949 31.7453 21.9739 32.2734 24.1105C32.5823 25.36 32.6588 27.4805 31.8833 29.3117C30.0392 28.5649 28.5922 27.0119 27.9272 25.9101C26.7897 24.0252 26.6076 21.4092 27.3793 18.441V18.441ZM14.2541 19.125C13.7951 19.21 13.4903 19.6437 13.5668 20.1112C13.6433 20.5192 13.9988 20.8084 14.4068 20.8084C14.4578 20.8084 14.5003 20.8086 14.5513 20.8001C15.0188 20.7151 15.325 20.273 15.2485 19.814H15.2402C15.1637 19.355 14.7216 19.04 14.2541 19.125V19.125ZM53.4819 19.2612C53.0229 19.1847 52.5806 19.4994 52.5041 19.9584C52.4276 20.4174 52.7339 20.8498 53.2014 20.9263C53.2439 20.9348 53.295 20.9446 53.3375 20.9446C53.7455 20.9446 54.1029 20.647 54.1709 20.239C54.2474 19.78 53.9409 19.3377 53.4819 19.2612V19.2612ZM21.6833 27.3262C23.1869 27.3387 24.5188 27.6784 25.6046 28.3439C26.6848 29.0058 28.2105 30.4442 28.9498 32.2834C27.1039 33.0874 24.9483 33.009 23.6855 32.6968C21.5624 32.1721 19.5945 30.4707 18.0459 27.8558C19.3337 27.4973 20.5576 27.3168 21.6833 27.3262L21.6833 27.3262ZM46.3167 27.3262C47.4125 27.3171 48.6011 27.4882 49.8512 27.8276C48.3257 30.4821 46.364 32.2017 44.2349 32.7151C42.9957 33.0137 40.8838 33.0758 39.0535 32.2801C39.7934 30.4429 41.316 29.0053 42.3954 28.3439C43.4812 27.6786 44.8131 27.3386 46.3167 27.3262V27.3262ZM33.9801 28.3439C34.084 28.8084 34.2106 29.2716 34.3968 29.7301C34.2653 29.7402 34.1338 29.75 34 29.75C33.8584 29.75 33.7191 29.7398 33.58 29.7284C33.7608 29.2706 33.8811 28.8076 33.9801 28.3439H33.9801ZM10.4175 29.9642C10.205 29.927 9.97861 29.971 9.79161 30.107C9.40911 30.379 9.31541 30.9065 9.58741 31.289C9.75741 31.5185 10.0129 31.6459 10.2764 31.6459C10.4464 31.6459 10.6164 31.5937 10.7694 31.4832C11.1434 31.2112 11.2373 30.6851 10.9653 30.3111C10.8293 30.1199 10.63 30.0014 10.4175 29.9642L10.4175 29.9642ZM57.5842 29.9675C57.3706 30.0026 57.1707 30.1199 57.0347 30.3112C56.7627 30.6937 56.8564 31.2197 57.2389 31.4832C57.3834 31.5937 57.5536 31.6459 57.7236 31.6459C57.9871 31.6459 58.2511 31.5185 58.4126 31.289C58.6846 30.9065 58.5907 30.3788 58.2167 30.1153C58.0255 29.9793 57.7977 29.9324 57.5842 29.9675L57.5842 29.9675ZM29.7517 30.1368C30.1382 30.3848 30.5384 30.618 30.9752 30.8075C30.8853 30.9133 30.7942 31.0184 30.6946 31.118C30.6079 31.2047 30.5155 31.2827 30.424 31.362C30.2338 30.9243 29.9995 30.5238 29.7517 30.1368ZM38.2483 30.1368C37.9995 30.5254 37.7634 30.9273 37.5727 31.367C37.4671 31.2767 37.3618 31.1848 37.2622 31.0848C37.1744 30.9966 37.0952 30.9037 37.0149 30.8109C37.4552 30.6204 37.859 30.3866 38.2483 30.1368H38.2483ZM32.72 31.3355C33.1316 31.4076 33.5579 31.45 34 31.45C34.4409 31.45 34.8661 31.4088 35.2767 31.3371C35.509 31.6624 35.7675 31.978 36.0652 32.2768C36.3758 32.5885 36.7039 32.8597 37.0431 33.1002C36.9668 33.5254 36.9252 33.9672 36.9252 34.425C36.9252 34.8823 36.967 35.3235 37.0431 35.7482C36.7184 35.9799 36.4012 36.2324 36.1034 36.5301C35.7912 36.8423 35.5198 37.173 35.28 37.5146C34.8684 37.4425 34.4421 37.4 34 37.4C33.5918 37.4 33.1985 37.4394 32.8163 37.5013C32.5625 37.1296 32.272 36.7705 31.9348 36.4321C31.6302 36.1265 31.3057 35.8691 30.9735 35.632C31.0371 35.2426 31.0748 34.8413 31.0748 34.425C31.0748 33.9702 31.0339 33.5312 30.9586 33.1085C31.2834 32.8767 31.5987 32.6178 31.8966 32.3199C32.2088 32.0077 32.4802 31.677 32.72 31.3355H32.72ZM8.11983 31.6858C7.90521 31.6666 7.68407 31.7303 7.50557 31.8833C7.14857 32.1808 7.0983 32.7084 7.4043 33.0654C7.5658 33.2694 7.80361 33.3708 8.05011 33.3708C8.23711 33.3708 8.43168 33.3024 8.58468 33.1749C8.94168 32.8689 8.99341 32.3433 8.69591 31.9862C8.54291 31.8077 8.33446 31.7049 8.11983 31.6858H8.11983ZM59.8852 31.6891C59.6695 31.7071 59.4612 31.8077 59.3124 31.9862C59.0064 32.3433 59.0583 32.8774 59.4153 33.1749C59.5683 33.3109 59.7627 33.3708 59.9582 33.3708C60.1962 33.3708 60.4357 33.2692 60.6057 33.0737C60.9032 32.7167 60.8512 32.1808 60.5027 31.8833C60.3242 31.7346 60.1008 31.671 59.8852 31.6891ZM5.86534 33.585C5.78352 33.592 5.70277 33.6112 5.62627 33.6431C5.52427 33.6856 5.43217 33.7542 5.35567 33.8307C5.27917 33.9072 5.21057 33.9993 5.16807 34.1013C5.12557 34.2033 5.10831 34.3145 5.10831 34.425C5.10831 34.6545 5.19417 34.8664 5.35567 35.0194C5.50867 35.1809 5.7205 35.2667 5.95 35.2667C6.1795 35.2667 6.39134 35.1809 6.54434 35.0194C6.70584 34.8579 6.7917 34.6545 6.7917 34.425C6.7917 34.3145 6.77444 34.2033 6.73194 34.1013C6.68944 33.9993 6.62084 33.9072 6.54434 33.8307C6.36584 33.6522 6.11077 33.5639 5.86534 33.585ZM62.05 33.5949C61.8311 33.5949 61.6129 33.6734 61.4557 33.8307C61.3792 33.9072 61.3106 33.9993 61.2681 34.1013C61.2256 34.2033 61.2083 34.3145 61.2083 34.425C61.2083 34.5355 61.2256 34.6468 61.2681 34.7488C61.3106 34.8507 61.3792 34.9429 61.4557 35.0194C61.6172 35.1809 61.8205 35.2667 62.05 35.2667C62.1605 35.2667 62.2717 35.2495 62.3737 35.207C62.4757 35.1645 62.5678 35.0959 62.6443 35.0194C62.7208 34.9429 62.7894 34.8507 62.8319 34.7488C62.8744 34.6468 62.8917 34.5355 62.8917 34.425C62.8917 34.3145 62.8744 34.2033 62.8319 34.1013C62.7894 33.9993 62.7208 33.9072 62.6443 33.8307C62.4871 33.6734 62.2689 33.5949 62.05 33.5949ZM38.6352 33.9652C39.1422 34.1701 39.6564 34.3084 40.1691 34.4134C39.6563 34.5177 39.141 34.6656 38.6352 34.8699C38.6227 34.7228 38.6119 34.5751 38.6119 34.425C38.6119 34.2699 38.6219 34.1171 38.6352 33.9652V33.9652ZM29.3648 33.9784C29.3774 34.1261 29.3881 34.2744 29.3881 34.425C29.3881 34.5342 29.3781 34.6411 29.3715 34.7488C28.961 34.5824 28.5456 34.4564 28.1297 34.357C28.5439 34.2584 28.9568 34.1433 29.3648 33.9784V33.9784ZM7.97042 35.4809C7.75579 35.4989 7.54734 35.5979 7.39434 35.7764C7.09684 36.1334 7.14027 36.6692 7.49727 36.9667C7.65877 37.1027 7.8548 37.1626 8.0418 37.1626C8.2883 37.1626 8.5261 37.0593 8.6876 36.8638C8.9851 36.5068 8.94167 35.9726 8.58467 35.6751C8.40617 35.5264 8.18504 35.4628 7.97042 35.4809ZM60.0246 35.4809C59.81 35.4617 59.5896 35.5264 59.4153 35.6751C59.0583 35.9811 59.0066 36.5068 59.3041 36.8638C59.4741 37.0678 59.7117 37.1709 59.9582 37.1709C60.1452 37.1709 60.3414 37.1027 60.4944 36.9667C60.8514 36.6692 60.9017 36.1332 60.5957 35.7847C60.447 35.6019 60.2392 35.5 60.0246 35.4809ZM25.2809 35.7963C26.4216 35.7491 27.7779 35.9046 29.0029 36.4504C28.2833 38.347 26.7081 39.8299 25.6046 40.5062C23.7132 41.665 21.0744 41.8289 18.0808 41.0026C19.6157 38.2799 21.604 36.5166 23.7651 35.9955C24.1848 35.8944 24.7055 35.8201 25.2809 35.7963ZM41.8791 35.9407C42.8152 35.8972 43.6783 35.9959 44.3146 36.1532C46.4377 36.6779 48.4055 38.3793 49.9541 40.9943C46.9462 41.8316 44.2941 41.6699 42.3954 40.5062C41.3152 39.8442 39.7895 38.4058 39.0502 36.5666C39.9661 36.1677 40.9571 35.9837 41.8791 35.9407V35.9407ZM10.1369 37.2174C9.92442 37.2535 9.72341 37.3698 9.58741 37.5611C9.31541 37.9436 9.40931 38.4711 9.78331 38.7431C9.93631 38.8451 10.1064 38.8958 10.2764 38.8958C10.5399 38.8958 10.7953 38.7684 10.9653 38.5389C11.2288 38.1564 11.1436 37.6303 10.7611 37.3668V37.3569C10.5741 37.2251 10.3494 37.1813 10.1369 37.2174V37.2174ZM57.8631 37.2207C57.6495 37.1846 57.4218 37.2308 57.2306 37.3668C56.8566 37.6388 56.7627 38.1649 57.0347 38.5389C57.1962 38.7769 57.4601 38.8958 57.7236 38.8958C57.8936 38.8958 58.0639 38.8451 58.2084 38.7431C58.5909 38.4711 58.6846 37.9436 58.4126 37.5611C58.2766 37.3741 58.0766 37.2568 57.8631 37.2207ZM30.4689 37.3801C30.5596 37.4594 30.6516 37.5376 30.7378 37.6241V37.6258C30.8581 37.7465 30.9701 37.8718 31.0765 38.001C30.6024 38.1993 30.1677 38.4463 29.7517 38.7132C30.0196 38.2948 30.2692 37.8577 30.4688 37.3801L30.4689 37.3801ZM37.576 37.488C37.7662 37.9258 38.0005 38.3262 38.2483 38.7132C37.8618 38.4652 37.4616 38.232 37.0248 38.0425C37.1147 37.9368 37.2058 37.8317 37.3054 37.732C37.3921 37.6453 37.4846 37.5673 37.576 37.488ZM34 39.1C34.1417 39.1 34.281 39.1103 34.42 39.1216C34.2487 39.5555 34.1324 39.9935 34.0349 40.4331C33.9399 39.9933 33.8308 39.5522 33.663 39.1166C33.775 39.1093 33.8864 39.1 34 39.1ZM31.958 39.5018C32.7162 41.3212 32.6568 43.4007 32.3631 44.6283C31.8426 46.803 30.0803 48.8004 27.361 50.3409C26.6097 47.4006 26.7983 44.8106 27.9272 42.94C28.6015 41.8227 30.0767 40.2357 31.958 39.5018H31.958ZM36.1167 39.5383C37.9608 40.2851 39.4078 41.8382 40.0729 42.94C41.2103 44.8248 41.3924 47.4408 40.6207 50.409C37.976 48.8552 36.2547 46.8761 35.7266 44.7396C35.4178 43.49 35.3412 41.3695 36.1167 39.5383ZM14.7986 47.7793C14.3396 47.7028 13.9056 48.0159 13.8291 48.4749C13.7526 48.9339 14.0591 49.368 14.5181 49.4445C14.5691 49.4529 14.6115 49.4611 14.6625 49.4611C15.0705 49.4611 15.4279 49.1635 15.4959 48.7555C15.5724 48.2965 15.2576 47.8558 14.7986 47.7793L14.7986 47.7793ZM53.4487 48.0499C52.9812 48.1349 52.6748 48.5771 52.7598 49.0361C52.8278 49.4526 53.1852 49.7416 53.5932 49.7416C53.6442 49.7416 53.6949 49.7335 53.7459 49.725C54.2049 49.64 54.5097 49.2064 54.4332 48.7389C54.3482 48.2799 53.9077 47.9734 53.4487 48.0499H53.4487ZM14.3819 50.5833C13.9144 50.5408 13.5064 50.8896 13.4639 51.3486C13.4214 51.8162 13.7702 52.2242 14.2292 52.2667C14.2547 52.2667 14.2801 52.275 14.3056 52.275C14.7391 52.275 15.1048 51.9349 15.1473 51.5014C15.1898 51.0339 14.8409 50.6258 14.3819 50.5833H14.3819ZM53.8903 50.8639C53.4228 50.9149 53.0825 51.3228 53.125 51.7902C53.1675 52.2323 53.5415 52.5639 53.975 52.5639C54.0005 52.5639 54.0259 52.5641 54.0514 52.5556C54.5189 52.5131 54.8592 52.0965 54.8167 51.6375C54.7742 51.17 54.3578 50.8214 53.8903 50.8639ZM19.643 52.9291C19.184 53.0056 18.8792 53.4479 18.9557 53.9069C19.0237 54.3149 19.3794 54.6125 19.7874 54.6125C19.8299 54.6125 19.8808 54.6044 19.9318 54.5959C20.3908 54.5194 20.6973 54.0856 20.6208 53.6181C20.5443 53.1591 20.102 52.8526 19.643 52.9291ZM48.611 53.1765C48.1435 53.1 47.7014 53.4062 47.6249 53.8737C47.5399 54.3327 47.8464 54.7732 48.3139 54.8582C48.3649 54.8667 48.4073 54.8682 48.4583 54.8682C48.8663 54.8682 49.2235 54.5791 49.3 54.1626C49.3765 53.7036 49.07 53.2615 48.611 53.1765H48.611ZM16.9153 53.2778C16.4478 53.3203 16.1077 53.7283 16.1417 54.1958C16.1842 54.6293 16.5499 54.9611 16.9834 54.9611H17.0598C17.5273 54.9186 17.8676 54.5106 17.8251 54.0431C17.7911 53.5841 17.3828 53.2353 16.9153 53.2778ZM14.0814 53.4189C13.9984 53.4271 13.916 53.4479 13.8374 53.4819C13.7354 53.5244 13.6433 53.5847 13.5668 53.6612L13.4639 53.7874C13.4299 53.8384 13.4045 53.8809 13.3875 53.9319C13.362 53.9828 13.3445 54.0435 13.336 54.0945C13.3275 54.1455 13.3194 54.2046 13.3194 54.2556C13.3194 54.4766 13.4138 54.6967 13.5668 54.8582C13.7283 55.0112 13.9484 55.1056 14.1694 55.1056C14.3904 55.1056 14.6023 55.0112 14.7638 54.8582C14.9168 54.6967 15.0111 54.4766 15.0111 54.2556C15.0111 54.2046 15.003 54.1455 14.9945 54.0945C14.986 54.0435 14.9686 53.9828 14.9431 53.9319C14.9261 53.8809 14.9007 53.8384 14.8667 53.7874C14.8412 53.7449 14.8063 53.7037 14.7638 53.6612C14.5853 53.4827 14.3305 53.3942 14.0815 53.4189H14.0814ZM51.3652 53.55C50.8977 53.5075 50.4814 53.8478 50.4389 54.3153C50.3964 54.7828 50.7367 55.1992 51.2042 55.2417C51.2297 55.2502 51.2549 55.25 51.2889 55.25C51.7224 55.25 52.0881 54.9184 52.1306 54.4764C52.1731 54.0089 51.8327 53.5925 51.3652 53.55ZM54.219 53.716C54.1362 53.7075 54.0517 53.7123 53.9667 53.7293C53.9157 53.7378 53.865 53.7536 53.814 53.7791C53.7545 53.7961 53.7122 53.8215 53.6612 53.8555C53.6187 53.881 53.5759 53.9244 53.5334 53.9584C53.4994 54.0009 53.456 54.0437 53.4305 54.0862C53.3965 54.1372 53.3713 54.188 53.3458 54.239C53.3288 54.29 53.3128 54.3407 53.3043 54.3917C53.2873 54.4512 53.286 54.5016 53.286 54.5611C53.286 54.6716 53.3033 54.7828 53.3458 54.8848C53.3968 54.9868 53.4569 55.0803 53.5334 55.1653L53.6612 55.2666C53.7122 55.3006 53.763 55.326 53.814 55.343C53.865 55.3685 53.9157 55.3774 53.9667 55.3944C54.0262 55.4029 54.0765 55.411 54.136 55.411C54.2465 55.411 54.3578 55.3855 54.4598 55.343C54.5618 55.3005 54.6553 55.2418 54.7403 55.1653C54.8933 55.0038 54.986 54.782 54.986 54.561C54.986 54.5015 54.9779 54.4512 54.9694 54.3917C54.9609 54.3407 54.9435 54.29 54.918 54.239C54.901 54.188 54.8756 54.1372 54.8416 54.0862L54.7403 53.9584C54.6553 53.8819 54.5618 53.8216 54.4598 53.7791C54.3833 53.7451 54.3019 53.7245 54.219 53.716V53.716ZM30.5187 57.6655C30.3051 57.6284 30.0774 57.6723 29.8861 57.8083C29.4951 58.0803 29.4016 58.6078 29.6736 58.9903C29.8351 59.2283 30.1074 59.3556 30.3709 59.3556C30.5409 59.3556 30.7112 59.3048 30.8557 59.2028C31.2467 58.9308 31.3402 58.4035 31.0682 58.0125C30.9322 57.8213 30.7322 57.7027 30.5187 57.6655V57.6655ZM37.4814 57.6722C37.2678 57.7104 37.0678 57.8296 36.9318 58.0208C36.6598 58.4033 36.7535 58.9308 37.136 59.2028C37.289 59.3048 37.4591 59.3556 37.6291 59.3556C37.8926 59.3556 38.1564 59.2281 38.3264 58.9986C38.5899 58.6077 38.4964 58.0803 38.1139 57.8083C37.9226 57.6766 37.6949 57.6339 37.4814 57.6722ZM32.1772 59.9234C31.9615 59.9021 31.7397 59.9639 31.5612 60.1126C31.1957 60.4186 31.1442 60.9542 31.4417 61.3112C31.6117 61.5152 31.8578 61.6167 32.0958 61.6167C32.2913 61.6167 32.4873 61.5568 32.6403 61.4208C33.0058 61.1233 33.0557 60.5875 32.7582 60.2305H32.7499C32.6012 60.0477 32.3928 59.9446 32.1772 59.9234ZM35.8212 59.93C35.6044 59.9502 35.3948 60.052 35.2418 60.2305C34.9443 60.5875 34.9942 61.1231 35.3597 61.4291C35.5127 61.5566 35.7089 61.625 35.8959 61.625C36.1424 61.625 36.3885 61.5151 36.55 61.3195C36.856 60.9541 36.8043 60.4184 36.4388 60.1209C36.2603 59.9722 36.0379 59.9098 35.8212 59.93H35.8212ZM34.0033 62.06C33.7813 62.06 33.5572 62.1385 33.3957 62.2957C33.2427 62.4572 33.15 62.679 33.15 62.9C33.15 63.121 33.2427 63.3428 33.3957 63.5043C33.5572 63.6573 33.779 63.75 34 63.75C34.2295 63.75 34.4428 63.6573 34.6043 63.5043C34.6383 63.4618 34.6716 63.4192 34.7056 63.3682C34.7396 63.3257 34.7649 63.2747 34.7819 63.2237C34.8074 63.1727 34.8249 63.1204 34.8334 63.0694C34.8419 63.0099 34.85 62.9595 34.85 62.9C34.85 62.679 34.7573 62.4572 34.6043 62.2957C34.4471 62.1385 34.2254 62.06 34.0033 62.06H34.0033Z" fill="#3326ae"/>
</svg>
